<svg width="47" height="47" viewBox="0 0 47 47" fill="none" xmlns="http://www.w3.org/2000/svg">
<g clip-path="url(#clip0_2027_468)">
<path d="M40.9989 11.4188L29.9835 0.403447C29.7264 0.146232 29.3755 0 29.0098 0H9.73242C7.45467 0 5.60156 1.8531 5.60156 4.13086V42.8691C5.60156 45.1469 7.45467 47 9.73242 47H37.2715C39.5492 47 41.4023 45.1469 41.4023 42.8691V12.3926C41.4023 12.0171 41.2447 11.6645 40.9989 11.4188ZM30.3867 4.70119L36.7011 11.0156H31.7637C31.0044 11.0156 30.3867 10.3979 30.3867 9.63867V4.70119ZM37.2715 44.2461H9.73242C8.97317 44.2461 8.35547 43.6284 8.35547 42.8691V4.13086C8.35547 3.37161 8.97317 2.75391 9.73242 2.75391H27.6328V9.63867C27.6328 11.9164 29.4859 13.7695 31.7637 13.7695H38.6484V42.8691C38.6484 43.6284 38.0307 44.2461 37.2715 44.2461Z" fill="white"/>
<path d="M31.7637 19.4609H15.2402C14.4798 19.4609 13.8633 20.0774 13.8633 20.8379C13.8633 21.5983 14.4798 22.2148 15.2402 22.2148H31.7637C32.5241 22.2148 33.1406 21.5983 33.1406 20.8379C33.1406 20.0774 32.5241 19.4609 31.7637 19.4609Z" fill="white"/>
<path d="M31.7637 24.9688H15.2402C14.4798 24.9688 13.8633 25.5853 13.8633 26.3457C13.8633 27.1061 14.4798 27.7227 15.2402 27.7227H31.7637C32.5241 27.7227 33.1406 27.1061 33.1406 26.3457C33.1406 25.5853 32.5241 24.9688 31.7637 24.9688Z" fill="white"/>
<path d="M31.7637 30.4766H15.2402C14.4798 30.4766 13.8633 31.0931 13.8633 31.8535C13.8633 32.614 14.4798 33.2305 15.2402 33.2305H31.7637C32.5241 33.2305 33.1406 32.614 33.1406 31.8535C33.1406 31.0931 32.5241 30.4766 31.7637 30.4766Z" fill="white"/>
<path d="M26.2559 35.9844H15.2402C14.4798 35.9844 13.8633 36.6009 13.8633 37.3613C13.8633 38.1218 14.4798 38.7383 15.2402 38.7383H26.2559C27.0163 38.7383 27.6328 38.1218 27.6328 37.3613C27.6328 36.6009 27.0163 35.9844 26.2559 35.9844Z" fill="white"/>
</g>
<defs>
<clipPath id="clip0_2027_468">
<rect width="47" height="47" fill="white"/>
</clipPath>
</defs>
</svg>
