<svg width="28" height="28" viewBox="0 0 28 28" fill="none" xmlns="http://www.w3.org/2000/svg">
<g clip-path="url(#clip0_2027_381)">
<path d="M25.9806 0H2.01939C0.904039 0 0 0.904039 0 2.01939V25.9806C0 27.096 0.904039 28 2.01939 28H25.9806C27.096 28 28 27.096 28 25.9806V2.01939C28 0.904039 27.096 0 25.9806 0ZM21.0135 10.7165V12.6094C20.1209 12.6097 19.2536 12.4348 18.4357 12.0897C17.9098 11.8677 17.4198 11.5816 16.9716 11.2359L16.9851 17.0624C16.9794 18.3744 16.4604 19.6071 15.521 20.5356C14.7564 21.2914 13.7876 21.772 12.7376 21.9276C12.4909 21.9641 12.2398 21.9828 11.9859 21.9828C10.8619 21.9828 9.79475 21.6187 8.92183 20.9469C8.75755 20.8204 8.60048 20.6833 8.45086 20.5356C7.43274 19.5293 6.90774 18.1654 6.99612 16.7307C7.0636 15.6385 7.50083 14.597 8.22976 13.7806C9.19417 12.7003 10.5434 12.1006 11.9859 12.1006C12.2398 12.1006 12.4909 12.1197 12.7376 12.1563V12.8562V14.8031C12.5038 14.7259 12.2539 14.6835 11.9937 14.6835C10.6758 14.6835 9.60952 15.7588 9.62921 17.0777C9.64168 17.9215 10.1027 18.6592 10.7826 19.0658C11.1021 19.2569 11.4697 19.3753 11.8619 19.3968C12.1693 19.4137 12.4644 19.3709 12.7376 19.2807C13.6793 18.9696 14.3585 18.0852 14.3585 17.042L14.3616 13.1403V6.01716H16.9685C16.971 6.27545 16.9972 6.5275 17.0459 6.77168C17.2427 7.76016 17.7999 8.61777 18.5753 9.20243C19.2515 9.71245 20.0934 10.0148 21.0061 10.0148C21.0067 10.0148 21.0142 10.0148 21.0136 10.0142L21.0135 10.7165Z" fill="#003D66"/>
</g>
<defs>
<clipPath id="clip0_2027_381">
<rect width="28" height="28" fill="white"/>
</clipPath>
</defs>
</svg>
