<svg width="28" height="28" viewBox="0 0 28 28" fill="none" xmlns="http://www.w3.org/2000/svg">
<g clip-path="url(#clip0_2027_383)">
<path d="M25.2 0H2.8C1.26 0 0 1.26 0 2.8V25.2C0 26.74 1.26 28 2.8 28H25.2C26.74 28 28 26.74 28 25.2V2.8C28 1.26 26.74 0 25.2 0ZM21.98 10.22C21.84 16.66 17.78 21.14 11.62 21.42C9.1 21.56 7.28 20.72 5.6 19.74C7.42 20.0201 9.8 19.3201 11.06 18.2C9.24 18.06 8.12 17.08 7.56 15.54C8.12 15.68 8.68 15.54 9.1 15.54C7.42 14.98 6.3 14 6.16 11.76C6.58 12.04 7.14 12.18 7.7 12.18C6.44 11.48 5.6 8.82 6.58 7.14C8.4 9.1 10.64 10.78 14.28 11.06C13.3 7.14 18.6201 5.04 20.7201 7.7C21.7001 7.56 22.4001 7.14 23.1001 6.86C22.8201 7.84 22.2601 8.4 21.5601 8.96C22.2601 8.82 22.9601 8.68 23.5201 8.4C23.38 9.1 22.68 9.66 21.98 10.22Z" fill="#003D66"/>
</g>
<defs>
<clipPath id="clip0_2027_383">
<rect width="28" height="28" fill="white"/>
</clipPath>
</defs>
</svg>
