<svg width="23" height="18" viewBox="0 0 23 18" fill="none" xmlns="http://www.w3.org/2000/svg">
<path d="M20.8482 0.5625H2.00893C0.898973 0.5625 0 1.51228 0 2.67188V15.3281C0 16.4946 0.90558 17.4375 2.00893 17.4375H20.8482C21.9489 17.4375 22.8571 16.4986 22.8571 15.3281V2.67188C22.8571 1.51434 21.9617 0.5625 20.8482 0.5625ZM20.5669 1.96875C20.1564 2.39742 13.093 9.77499 12.8491 10.0297C12.4696 10.4281 11.9652 10.6475 11.4286 10.6475C10.892 10.6475 10.3875 10.4281 10.0068 10.0284C9.84277 9.85706 2.85728 2.56097 2.29027 1.96875H20.5669ZM1.33929 15.0419V2.95898L7.1267 9.00375L1.33929 15.0419ZM2.29112 16.0312L8.07625 9.99548L9.06103 11.0241C9.69344 11.6881 10.5342 12.0538 11.4286 12.0538C12.3229 12.0538 13.1637 11.6881 13.7949 11.0254L14.7809 9.99548L20.566 16.0312H2.29112ZM21.5179 15.0419L15.7304 9.00375L21.5179 2.95898V15.0419Z" fill="white"/>
</svg>
