<svg width="23" height="24" viewBox="0 0 23 24" fill="none" xmlns="http://www.w3.org/2000/svg">
<path d="M16.4273 24C15.6895 24 14.9579 23.863 14.2426 23.5901C11.091 22.388 8.16567 20.4301 5.78273 17.9281C3.3998 15.4261 1.53514 12.3544 0.390322 9.04529C0.0224349 7.98183 -0.0861321 6.88406 0.0677456 5.78236C0.211891 4.7504 0.59259 3.74858 1.16873 2.88518C1.74741 2.01798 2.5189 1.2967 3.39975 0.799327C4.33909 0.268958 5.36436 0 6.44717 0C6.78394 0 7.075 0.247068 7.14558 0.592804L8.2667 6.08628C8.31745 6.33504 8.24464 6.59387 8.07335 6.77377L6.15767 8.78519C7.96483 12.5578 10.8972 15.6368 14.4902 17.5343L16.4058 15.5229C16.5772 15.343 16.8237 15.2667 17.0606 15.3199L22.2925 16.497C22.6218 16.5711 22.857 16.8767 22.857 17.2304C22.857 18.3673 22.6009 19.4439 22.0957 20.4302C21.622 21.3551 20.9351 22.1652 20.1092 22.7728C19.287 23.3777 18.3328 23.7774 17.35 23.9288C17.042 23.9763 16.7341 24 16.4273 24ZM5.87648 1.53275C4.44819 1.69831 3.18048 2.48437 2.33863 3.74596C1.39198 5.16457 1.17123 6.90942 1.73299 8.5332C3.93397 14.8951 8.67132 19.8693 14.7303 22.1803C16.2767 22.7702 17.9384 22.5385 19.2895 21.5444C20.4911 20.6605 21.2397 19.3294 21.3974 17.8297L17.1412 16.8721L15.1406 18.9727C14.9277 19.1963 14.6042 19.2556 14.3318 19.1212C10.0825 17.0251 6.64279 13.4134 4.64644 8.95154C4.51846 8.66547 4.57497 8.32583 4.78786 8.10234L6.7885 6.00168L5.87648 1.53275Z" fill="white"/>
</svg>
