<svg width="19" height="24" viewBox="0 0 19 24" fill="none" xmlns="http://www.w3.org/2000/svg">
<path d="M9.26948 23.7712C9.41797 23.9219 9.60743 24 9.79689 24C9.98635 24 10.1758 23.9219 10.3243 23.7712C10.6674 23.414 18.7579 14.9972 18.7579 9.76744C18.7579 4.3814 14.7382 0 9.79689 0C4.85557 0 0.835938 4.3814 0.835938 9.76744C0.835938 14.9972 8.9264 23.414 9.26948 23.7712ZM9.79689 1.67442C13.8933 1.67442 17.2217 5.30233 17.2217 9.76744C17.2217 13.2447 12.2752 19.3116 9.79689 21.9963C7.31855 19.3116 2.3721 13.2502 2.3721 9.76744C2.3721 5.30233 5.70046 1.67442 9.79689 1.67442Z" fill="white"/>
<path d="M13.8488 9.76759C13.8488 7.45689 12.1283 5.58154 10.0084 5.58154C7.88847 5.58154 6.16797 7.45689 6.16797 9.76759C6.16797 12.0783 7.88847 13.9536 10.0084 13.9536C12.1283 13.9536 13.8488 12.0783 13.8488 9.76759ZM7.70413 9.76759C7.70413 8.3834 8.73848 7.25596 10.0084 7.25596C11.2783 7.25596 12.3126 8.3834 12.3126 9.76759C12.3126 11.1518 11.2783 12.2792 10.0084 12.2792C8.73848 12.2792 7.70413 11.1518 7.70413 9.76759Z" fill="white"/>
</svg>
